<mxfile host="app.diagrams.net" modified="2023-05-24T16:04:43.892Z" agent="Mozilla/5.0 (Windows NT 10.0; Win64; x64) AppleWebKit/537.36 (KHTML, like Gecko) Chrome/113.0.0.0 Safari/537.36" etag="jKLZIEK18-0j1l600KsM" version="21.3.3" type="google">
  <diagram id="R2lEEEUBdFMjLlhIrx00" name="Page-1">
    <mxGraphModel dx="2074" dy="1864" grid="1" gridSize="10" guides="1" tooltips="1" connect="1" arrows="1" fold="1" page="1" pageScale="1" pageWidth="850" pageHeight="1100" math="0" shadow="0" extFonts="Permanent Marker^https://fonts.googleapis.com/css?family=Permanent+Marker">
      <root>
        <mxCell id="0" />
        <mxCell id="1" parent="0" />
        <mxCell id="_BEPI9c5hfQ9F48i55fc-5" style="edgeStyle=none;rounded=0;orthogonalLoop=1;jettySize=auto;html=1;entryX=1;entryY=0;entryDx=0;entryDy=0;endArrow=none;endFill=0;" parent="1" source="_BEPI9c5hfQ9F48i55fc-1" target="_BEPI9c5hfQ9F48i55fc-4" edge="1">
          <mxGeometry relative="1" as="geometry" />
        </mxCell>
        <mxCell id="G5Km5KM9y0l9eOGYp1cR-38" style="rounded=0;orthogonalLoop=1;jettySize=auto;html=1;entryX=0;entryY=0.5;entryDx=0;entryDy=0;endArrow=none;endFill=0;" parent="1" source="_BEPI9c5hfQ9F48i55fc-1" target="G5Km5KM9y0l9eOGYp1cR-37" edge="1">
          <mxGeometry relative="1" as="geometry">
            <Array as="points">
              <mxPoint x="325" y="147" />
            </Array>
          </mxGeometry>
        </mxCell>
        <mxCell id="mvCyFmwDbxFd1LSHAD4m-32" style="rounded=0;orthogonalLoop=1;jettySize=auto;html=1;entryX=0;entryY=0.5;entryDx=0;entryDy=0;endArrow=none;endFill=0;" parent="1" source="_BEPI9c5hfQ9F48i55fc-1" target="mvCyFmwDbxFd1LSHAD4m-27" edge="1">
          <mxGeometry relative="1" as="geometry" />
        </mxCell>
        <mxCell id="_BEPI9c5hfQ9F48i55fc-1" value="Collezionista" style="rounded=0;whiteSpace=wrap;html=1;" parent="1" vertex="1">
          <mxGeometry x="265" y="3" width="120" height="60" as="geometry" />
        </mxCell>
        <mxCell id="_BEPI9c5hfQ9F48i55fc-3" style="rounded=0;orthogonalLoop=1;jettySize=auto;html=1;entryX=0;entryY=0.5;entryDx=0;entryDy=0;endArrow=none;endFill=0;" parent="1" source="_BEPI9c5hfQ9F48i55fc-2" target="_BEPI9c5hfQ9F48i55fc-1" edge="1">
          <mxGeometry relative="1" as="geometry" />
        </mxCell>
        <mxCell id="_BEPI9c5hfQ9F48i55fc-2" value="Nickname" style="ellipse;whiteSpace=wrap;html=1;fontStyle=4" parent="1" vertex="1">
          <mxGeometry x="60" y="-7" width="120" height="80" as="geometry" />
        </mxCell>
        <mxCell id="_BEPI9c5hfQ9F48i55fc-4" value="Email" style="ellipse;whiteSpace=wrap;html=1;fontStyle=4" parent="1" vertex="1">
          <mxGeometry x="70" y="83" width="120" height="80" as="geometry" />
        </mxCell>
        <mxCell id="_BEPI9c5hfQ9F48i55fc-8" style="edgeStyle=none;rounded=0;orthogonalLoop=1;jettySize=auto;html=1;entryX=1;entryY=0.5;entryDx=0;entryDy=0;endArrow=none;endFill=0;exitX=0;exitY=0.75;exitDx=0;exitDy=0;" parent="1" source="_BEPI9c5hfQ9F48i55fc-95" target="_BEPI9c5hfQ9F48i55fc-7" edge="1">
          <mxGeometry relative="1" as="geometry">
            <mxPoint x="730" y="-355.38461538461524" as="sourcePoint" />
          </mxGeometry>
        </mxCell>
        <mxCell id="_BEPI9c5hfQ9F48i55fc-53" style="edgeStyle=none;rounded=0;orthogonalLoop=1;jettySize=auto;html=1;entryX=0;entryY=0.5;entryDx=0;entryDy=0;endArrow=none;endFill=0;exitX=0.75;exitY=1;exitDx=0;exitDy=0;" parent="1" source="_BEPI9c5hfQ9F48i55fc-95" target="hIdb89uVxdYaDY5rnDA6-11" edge="1">
          <mxGeometry relative="1" as="geometry">
            <mxPoint x="813.6842105263158" y="-329.9999999999998" as="sourcePoint" />
            <mxPoint x="940" y="-170" as="targetPoint" />
          </mxGeometry>
        </mxCell>
        <mxCell id="_BEPI9c5hfQ9F48i55fc-71" style="edgeStyle=none;rounded=0;orthogonalLoop=1;jettySize=auto;html=1;entryX=0;entryY=0.5;entryDx=0;entryDy=0;endArrow=none;endFill=0;exitX=1;exitY=0;exitDx=0;exitDy=0;" parent="1" source="_BEPI9c5hfQ9F48i55fc-95" target="_BEPI9c5hfQ9F48i55fc-70" edge="1">
          <mxGeometry relative="1" as="geometry">
            <mxPoint x="820" y="-389.9999999999998" as="sourcePoint" />
          </mxGeometry>
        </mxCell>
        <mxCell id="_BEPI9c5hfQ9F48i55fc-7" value="Titolo" style="ellipse;whiteSpace=wrap;html=1;fontStyle=4" parent="1" vertex="1">
          <mxGeometry x="542.5" y="-412" width="57.5" height="46.5" as="geometry" />
        </mxCell>
        <mxCell id="_BEPI9c5hfQ9F48i55fc-10" style="edgeStyle=none;rounded=0;orthogonalLoop=1;jettySize=auto;html=1;entryX=0;entryY=1;entryDx=0;entryDy=0;endArrow=none;endFill=0;" parent="1" source="_BEPI9c5hfQ9F48i55fc-9" target="_BEPI9c5hfQ9F48i55fc-95" edge="1">
          <mxGeometry relative="1" as="geometry">
            <mxPoint x="790" y="-389.9999999999998" as="targetPoint" />
          </mxGeometry>
        </mxCell>
        <mxCell id="_BEPI9c5hfQ9F48i55fc-9" value="Anno di Uscita" style="ellipse;whiteSpace=wrap;html=1;fontStyle=4" parent="1" vertex="1">
          <mxGeometry x="425" y="-365.5" width="120" height="80" as="geometry" />
        </mxCell>
        <mxCell id="_BEPI9c5hfQ9F48i55fc-17" value="" style="rounded=0;whiteSpace=wrap;html=1;" parent="1" vertex="1">
          <mxGeometry x="640" y="-7" width="140" height="80" as="geometry" />
        </mxCell>
        <mxCell id="_BEPI9c5hfQ9F48i55fc-14" style="edgeStyle=none;rounded=0;orthogonalLoop=1;jettySize=auto;html=1;entryX=0.5;entryY=0;entryDx=0;entryDy=0;endArrow=none;endFill=0;exitX=0.5;exitY=1;exitDx=0;exitDy=0;" parent="1" source="_BEPI9c5hfQ9F48i55fc-17" target="_BEPI9c5hfQ9F48i55fc-13" edge="1">
          <mxGeometry relative="1" as="geometry" />
        </mxCell>
        <mxCell id="G5Km5KM9y0l9eOGYp1cR-41" style="rounded=0;orthogonalLoop=1;jettySize=auto;html=1;entryX=0.5;entryY=0;entryDx=0;entryDy=0;endArrow=none;endFill=0;exitX=0.75;exitY=1;exitDx=0;exitDy=0;" parent="1" source="_BEPI9c5hfQ9F48i55fc-17" target="G5Km5KM9y0l9eOGYp1cR-40" edge="1">
          <mxGeometry relative="1" as="geometry" />
        </mxCell>
        <mxCell id="_BEPI9c5hfQ9F48i55fc-11" value="Collezione di dischi" style="rounded=0;whiteSpace=wrap;html=1;" parent="1" vertex="1">
          <mxGeometry x="650" y="3" width="120" height="60" as="geometry" />
        </mxCell>
        <mxCell id="_BEPI9c5hfQ9F48i55fc-13" value="Nome" style="ellipse;whiteSpace=wrap;html=1;fontStyle=4" parent="1" vertex="1">
          <mxGeometry x="725" y="157" width="120" height="80" as="geometry" />
        </mxCell>
        <mxCell id="_BEPI9c5hfQ9F48i55fc-70" value="Barcode" style="ellipse;whiteSpace=wrap;html=1;fontStyle=0" parent="1" vertex="1">
          <mxGeometry x="985" y="-522" width="90" height="50" as="geometry" />
        </mxCell>
        <mxCell id="_BEPI9c5hfQ9F48i55fc-89" style="edgeStyle=none;rounded=0;orthogonalLoop=1;jettySize=auto;html=1;entryX=0.5;entryY=1;entryDx=0;entryDy=0;endArrow=none;endFill=0;exitX=0.5;exitY=0;exitDx=0;exitDy=0;" parent="1" source="B4FTuvSRuAMlY6wqXQve-10" target="_BEPI9c5hfQ9F48i55fc-88" edge="1">
          <mxGeometry relative="1" as="geometry">
            <mxPoint x="1223.636363636364" y="-530" as="sourcePoint" />
          </mxGeometry>
        </mxCell>
        <mxCell id="_BEPI9c5hfQ9F48i55fc-76" style="edgeStyle=none;rounded=0;orthogonalLoop=1;jettySize=auto;html=1;entryX=0.5;entryY=1;entryDx=0;entryDy=0;endArrow=none;endFill=0;exitX=0.75;exitY=1;exitDx=0;exitDy=0;" parent="1" source="G5Km5KM9y0l9eOGYp1cR-2" target="_BEPI9c5hfQ9F48i55fc-74" edge="1">
          <mxGeometry relative="1" as="geometry" />
        </mxCell>
        <mxCell id="_BEPI9c5hfQ9F48i55fc-77" style="edgeStyle=none;rounded=0;orthogonalLoop=1;jettySize=auto;html=1;endArrow=none;endFill=0;entryX=0;entryY=0.5;entryDx=0;entryDy=0;exitX=0.5;exitY=0;exitDx=0;exitDy=0;" parent="1" source="G5Km5KM9y0l9eOGYp1cR-2" target="_BEPI9c5hfQ9F48i55fc-75" edge="1">
          <mxGeometry relative="1" as="geometry" />
        </mxCell>
        <mxCell id="_BEPI9c5hfQ9F48i55fc-80" style="edgeStyle=none;rounded=0;orthogonalLoop=1;jettySize=auto;html=1;entryX=0;entryY=0;entryDx=0;entryDy=0;endArrow=none;endFill=0;exitX=0.5;exitY=1;exitDx=0;exitDy=0;" parent="1" source="G5Km5KM9y0l9eOGYp1cR-2" target="_BEPI9c5hfQ9F48i55fc-79" edge="1">
          <mxGeometry relative="1" as="geometry" />
        </mxCell>
        <mxCell id="_BEPI9c5hfQ9F48i55fc-81" style="edgeStyle=none;rounded=0;orthogonalLoop=1;jettySize=auto;html=1;entryX=0;entryY=0.5;entryDx=0;entryDy=0;endArrow=none;endFill=0;exitX=1;exitY=0.5;exitDx=0;exitDy=0;" parent="1" source="G5Km5KM9y0l9eOGYp1cR-2" target="_BEPI9c5hfQ9F48i55fc-78" edge="1">
          <mxGeometry relative="1" as="geometry" />
        </mxCell>
        <mxCell id="_BEPI9c5hfQ9F48i55fc-86" style="edgeStyle=none;rounded=0;orthogonalLoop=1;jettySize=auto;html=1;entryX=1;entryY=0.5;entryDx=0;entryDy=0;endArrow=none;endFill=0;" parent="1" source="_BEPI9c5hfQ9F48i55fc-73" target="hIdb89uVxdYaDY5rnDA6-11" edge="1">
          <mxGeometry relative="1" as="geometry">
            <mxPoint x="1040" y="-170" as="targetPoint" />
          </mxGeometry>
        </mxCell>
        <mxCell id="_BEPI9c5hfQ9F48i55fc-73" value="Autore" style="rounded=0;whiteSpace=wrap;html=1;" parent="1" vertex="1">
          <mxGeometry x="1190" y="-200" width="120" height="60" as="geometry" />
        </mxCell>
        <mxCell id="_BEPI9c5hfQ9F48i55fc-74" value="Nome" style="ellipse;whiteSpace=wrap;html=1;fontStyle=4" parent="1" vertex="1">
          <mxGeometry x="1510" y="90" width="120" height="80" as="geometry" />
        </mxCell>
        <mxCell id="_BEPI9c5hfQ9F48i55fc-75" value="Cognome" style="ellipse;whiteSpace=wrap;html=1;fontStyle=4" parent="1" vertex="1">
          <mxGeometry x="1550" y="-140" width="120" height="80" as="geometry" />
        </mxCell>
        <mxCell id="_BEPI9c5hfQ9F48i55fc-78" value="Data di nascita" style="ellipse;whiteSpace=wrap;html=1;fontStyle=4" parent="1" vertex="1">
          <mxGeometry x="1565" y="-10" width="120" height="80" as="geometry" />
        </mxCell>
        <mxCell id="_BEPI9c5hfQ9F48i55fc-79" value="Luogo di nascita" style="ellipse;whiteSpace=wrap;html=1;fontStyle=4" parent="1" vertex="1">
          <mxGeometry x="1370" y="90" width="120" height="80" as="geometry" />
        </mxCell>
        <mxCell id="_BEPI9c5hfQ9F48i55fc-88" value="Titolo" style="ellipse;whiteSpace=wrap;html=1;fontStyle=4" parent="1" vertex="1">
          <mxGeometry x="1350" y="-756.5" width="120" height="80" as="geometry" />
        </mxCell>
        <mxCell id="_BEPI9c5hfQ9F48i55fc-91" style="edgeStyle=none;rounded=0;orthogonalLoop=1;jettySize=auto;html=1;entryX=0.75;entryY=0;entryDx=0;entryDy=0;endArrow=none;endFill=0;" parent="1" source="_BEPI9c5hfQ9F48i55fc-90" target="B4FTuvSRuAMlY6wqXQve-10" edge="1">
          <mxGeometry relative="1" as="geometry">
            <mxPoint x="1255" y="-530" as="targetPoint" />
          </mxGeometry>
        </mxCell>
        <mxCell id="_BEPI9c5hfQ9F48i55fc-90" value="Durata" style="ellipse;whiteSpace=wrap;html=1;" parent="1" vertex="1">
          <mxGeometry x="1360" y="-617" width="120" height="80" as="geometry" />
        </mxCell>
        <mxCell id="_BEPI9c5hfQ9F48i55fc-94" style="edgeStyle=none;rounded=0;orthogonalLoop=1;jettySize=auto;html=1;entryX=0;entryY=0.5;entryDx=0;entryDy=0;endArrow=none;endFill=0;exitX=1;exitY=0.5;exitDx=0;exitDy=0;" parent="1" source="-A1Xnri77ompU6i3Z0by-5" target="B4FTuvSRuAMlY6wqXQve-10" edge="1">
          <mxGeometry relative="1" as="geometry">
            <mxPoint x="1075" y="-410" as="sourcePoint" />
            <mxPoint x="1165" y="-500" as="targetPoint" />
          </mxGeometry>
        </mxCell>
        <mxCell id="_BEPI9c5hfQ9F48i55fc-95" value="" style="rounded=0;whiteSpace=wrap;html=1;" parent="1" vertex="1">
          <mxGeometry x="710" y="-390" width="140" height="80" as="geometry" />
        </mxCell>
        <mxCell id="_BEPI9c5hfQ9F48i55fc-100" style="edgeStyle=none;rounded=0;orthogonalLoop=1;jettySize=auto;html=1;entryX=0.059;entryY=0.59;entryDx=0;entryDy=0;endArrow=none;endFill=0;exitX=1;exitY=0.25;exitDx=0;exitDy=0;entryPerimeter=0;" parent="1" source="_BEPI9c5hfQ9F48i55fc-95" target="-A1Xnri77ompU6i3Z0by-5" edge="1">
          <mxGeometry relative="1" as="geometry">
            <mxPoint x="995" y="-410" as="targetPoint" />
          </mxGeometry>
        </mxCell>
        <mxCell id="_BEPI9c5hfQ9F48i55fc-96" value="Disco" style="rounded=0;whiteSpace=wrap;html=1;" parent="1" vertex="1">
          <mxGeometry x="720" y="-380" width="120" height="60" as="geometry" />
        </mxCell>
        <mxCell id="G5Km5KM9y0l9eOGYp1cR-8" style="rounded=0;orthogonalLoop=1;jettySize=auto;html=1;endArrow=none;endFill=0;entryX=0;entryY=0.5;entryDx=0;entryDy=0;exitX=1;exitY=0.5;exitDx=0;exitDy=0;" parent="1" source="G5Km5KM9y0l9eOGYp1cR-20" target="hIdb89uVxdYaDY5rnDA6-15" edge="1">
          <mxGeometry relative="1" as="geometry">
            <mxPoint x="1185" y="69.78260869565224" as="sourcePoint" />
            <mxPoint x="1240" y="65" as="targetPoint" />
          </mxGeometry>
        </mxCell>
        <mxCell id="G5Km5KM9y0l9eOGYp1cR-10" style="rounded=0;orthogonalLoop=1;jettySize=auto;html=1;entryX=1;entryY=0.5;entryDx=0;entryDy=0;endArrow=none;endFill=0;" parent="1" source="G5Km5KM9y0l9eOGYp1cR-2" target="hIdb89uVxdYaDY5rnDA6-15" edge="1">
          <mxGeometry relative="1" as="geometry">
            <mxPoint x="1340" y="65" as="targetPoint" />
          </mxGeometry>
        </mxCell>
        <mxCell id="hIdb89uVxdYaDY5rnDA6-14" style="rounded=0;orthogonalLoop=1;jettySize=auto;html=1;entryX=0.75;entryY=1;entryDx=0;entryDy=0;endArrow=block;endFill=1;" parent="1" source="G5Km5KM9y0l9eOGYp1cR-2" target="_BEPI9c5hfQ9F48i55fc-73" edge="1">
          <mxGeometry relative="1" as="geometry" />
        </mxCell>
        <mxCell id="G5Km5KM9y0l9eOGYp1cR-2" value="Artista singolo" style="rounded=0;whiteSpace=wrap;html=1;" parent="1" vertex="1">
          <mxGeometry x="1390" y="-30" width="120" height="60" as="geometry" />
        </mxCell>
        <mxCell id="G5Km5KM9y0l9eOGYp1cR-15" style="rounded=0;orthogonalLoop=1;jettySize=auto;html=1;entryX=0.5;entryY=1;entryDx=0;entryDy=0;endArrow=none;endFill=0;" parent="1" source="G5Km5KM9y0l9eOGYp1cR-12" target="B4FTuvSRuAMlY6wqXQve-10" edge="1">
          <mxGeometry relative="1" as="geometry">
            <mxPoint x="1255" y="-470" as="targetPoint" />
          </mxGeometry>
        </mxCell>
        <mxCell id="G5Km5KM9y0l9eOGYp1cR-16" style="rounded=0;orthogonalLoop=1;jettySize=auto;html=1;entryX=0.417;entryY=-0.001;entryDx=0;entryDy=0;endArrow=none;endFill=0;entryPerimeter=0;" parent="1" source="G5Km5KM9y0l9eOGYp1cR-12" target="_BEPI9c5hfQ9F48i55fc-73" edge="1">
          <mxGeometry relative="1" as="geometry" />
        </mxCell>
        <mxCell id="G5Km5KM9y0l9eOGYp1cR-12" value="Produce" style="rhombus;whiteSpace=wrap;html=1;" parent="1" vertex="1">
          <mxGeometry x="1200" y="-362" width="80" height="80" as="geometry" />
        </mxCell>
        <mxCell id="hIdb89uVxdYaDY5rnDA6-13" style="rounded=0;orthogonalLoop=1;jettySize=auto;html=1;entryX=0.25;entryY=1;entryDx=0;entryDy=0;endArrow=block;endFill=1;" parent="1" source="G5Km5KM9y0l9eOGYp1cR-20" target="_BEPI9c5hfQ9F48i55fc-73" edge="1">
          <mxGeometry relative="1" as="geometry" />
        </mxCell>
        <mxCell id="hIdb89uVxdYaDY5rnDA6-24" style="rounded=0;orthogonalLoop=1;jettySize=auto;html=1;entryX=0;entryY=0.5;entryDx=0;entryDy=0;endArrow=none;endFill=0;" parent="1" source="G5Km5KM9y0l9eOGYp1cR-20" target="hIdb89uVxdYaDY5rnDA6-22" edge="1">
          <mxGeometry relative="1" as="geometry" />
        </mxCell>
        <mxCell id="G5Km5KM9y0l9eOGYp1cR-20" value="" style="rounded=0;whiteSpace=wrap;html=1;" parent="1" vertex="1">
          <mxGeometry x="1045" y="15" width="140" height="80" as="geometry" />
        </mxCell>
        <mxCell id="G5Km5KM9y0l9eOGYp1cR-21" value="Band" style="rounded=0;whiteSpace=wrap;html=1;" parent="1" vertex="1">
          <mxGeometry x="1055" y="25" width="120" height="60" as="geometry" />
        </mxCell>
        <mxCell id="G5Km5KM9y0l9eOGYp1cR-31" style="rounded=0;orthogonalLoop=1;jettySize=auto;html=1;entryX=0;entryY=0.5;entryDx=0;entryDy=0;exitX=1;exitY=0.5;exitDx=0;exitDy=0;endArrow=none;endFill=0;" parent="1" source="G5Km5KM9y0l9eOGYp1cR-34" target="B4FTuvSRuAMlY6wqXQve-3" edge="1">
          <mxGeometry relative="1" as="geometry">
            <mxPoint x="470" y="-540" as="sourcePoint" />
            <mxPoint x="520" y="-470" as="targetPoint" />
          </mxGeometry>
        </mxCell>
        <mxCell id="G5Km5KM9y0l9eOGYp1cR-26" style="rounded=0;orthogonalLoop=1;jettySize=auto;html=1;entryX=0;entryY=0.5;entryDx=0;entryDy=0;endArrow=none;endFill=0;" parent="1" source="G5Km5KM9y0l9eOGYp1cR-25" target="G5Km5KM9y0l9eOGYp1cR-34" edge="1">
          <mxGeometry relative="1" as="geometry">
            <mxPoint x="330" y="-540" as="targetPoint" />
          </mxGeometry>
        </mxCell>
        <mxCell id="G5Km5KM9y0l9eOGYp1cR-25" value="Descrizione" style="ellipse;whiteSpace=wrap;html=1;fontStyle=0" parent="1" vertex="1">
          <mxGeometry x="180" y="-580" width="120" height="80" as="geometry" />
        </mxCell>
        <mxCell id="G5Km5KM9y0l9eOGYp1cR-32" style="rounded=0;orthogonalLoop=1;jettySize=auto;html=1;entryX=0;entryY=0.5;entryDx=0;entryDy=0;endArrow=none;endFill=0;exitX=1;exitY=0.5;exitDx=0;exitDy=0;" parent="1" source="B4FTuvSRuAMlY6wqXQve-3" target="_BEPI9c5hfQ9F48i55fc-95" edge="1">
          <mxGeometry relative="1" as="geometry">
            <mxPoint x="606.875" y="-356.875" as="sourcePoint" />
          </mxGeometry>
        </mxCell>
        <mxCell id="G5Km5KM9y0l9eOGYp1cR-34" value="Immagine" style="rounded=0;whiteSpace=wrap;html=1;" parent="1" vertex="1">
          <mxGeometry x="340" y="-570" width="120" height="60" as="geometry" />
        </mxCell>
        <mxCell id="G5Km5KM9y0l9eOGYp1cR-39" style="rounded=0;orthogonalLoop=1;jettySize=auto;html=1;entryX=0.25;entryY=1;entryDx=0;entryDy=0;endArrow=none;endFill=0;" parent="1" source="G5Km5KM9y0l9eOGYp1cR-37" target="_BEPI9c5hfQ9F48i55fc-17" edge="1">
          <mxGeometry relative="1" as="geometry">
            <Array as="points">
              <mxPoint x="675" y="147" />
            </Array>
          </mxGeometry>
        </mxCell>
        <mxCell id="G5Km5KM9y0l9eOGYp1cR-37" value="Condivisa" style="rhombus;whiteSpace=wrap;html=1;" parent="1" vertex="1">
          <mxGeometry x="455" y="107" width="80" height="80" as="geometry" />
        </mxCell>
        <mxCell id="G5Km5KM9y0l9eOGYp1cR-40" value="Visibilità" style="ellipse;whiteSpace=wrap;html=1;fontStyle=0" parent="1" vertex="1">
          <mxGeometry x="845" y="107" width="120" height="80" as="geometry" />
        </mxCell>
        <mxCell id="G5Km5KM9y0l9eOGYp1cR-51" style="rounded=0;orthogonalLoop=1;jettySize=auto;html=1;entryX=0.5;entryY=0;entryDx=0;entryDy=0;endArrow=none;endFill=0;" parent="1" source="G5Km5KM9y0l9eOGYp1cR-49" target="hIdb89uVxdYaDY5rnDA6-9" edge="1">
          <mxGeometry relative="1" as="geometry">
            <mxPoint x="1015" y="-720" as="targetPoint" />
          </mxGeometry>
        </mxCell>
        <mxCell id="G5Km5KM9y0l9eOGYp1cR-49" value="Etichetta" style="rounded=0;whiteSpace=wrap;html=1;" parent="1" vertex="1">
          <mxGeometry x="1090" y="-900" width="120" height="60" as="geometry" />
        </mxCell>
        <mxCell id="G5Km5KM9y0l9eOGYp1cR-52" style="rounded=0;orthogonalLoop=1;jettySize=auto;html=1;entryX=0.75;entryY=0;entryDx=0;entryDy=0;endArrow=none;endFill=0;exitX=0.5;exitY=1;exitDx=0;exitDy=0;" parent="1" source="hIdb89uVxdYaDY5rnDA6-9" target="_BEPI9c5hfQ9F48i55fc-95" edge="1">
          <mxGeometry relative="1" as="geometry">
            <mxPoint x="1015" y="-640" as="sourcePoint" />
            <mxPoint x="1420" y="-960" as="targetPoint" />
          </mxGeometry>
        </mxCell>
        <mxCell id="G5Km5KM9y0l9eOGYp1cR-55" style="rounded=0;orthogonalLoop=1;jettySize=auto;html=1;entryX=0;entryY=0.25;entryDx=0;entryDy=0;endArrow=none;endFill=0;" parent="1" source="G5Km5KM9y0l9eOGYp1cR-53" target="G5Km5KM9y0l9eOGYp1cR-49" edge="1">
          <mxGeometry relative="1" as="geometry" />
        </mxCell>
        <mxCell id="G5Km5KM9y0l9eOGYp1cR-53" value="Nome" style="ellipse;whiteSpace=wrap;html=1;fontStyle=0" parent="1" vertex="1">
          <mxGeometry x="885" y="-930" width="120" height="80" as="geometry" />
        </mxCell>
        <mxCell id="G5Km5KM9y0l9eOGYp1cR-57" style="rounded=0;orthogonalLoop=1;jettySize=auto;html=1;entryX=0;entryY=0.75;entryDx=0;entryDy=0;endArrow=none;endFill=0;" parent="1" source="G5Km5KM9y0l9eOGYp1cR-56" target="G5Km5KM9y0l9eOGYp1cR-49" edge="1">
          <mxGeometry relative="1" as="geometry" />
        </mxCell>
        <mxCell id="G5Km5KM9y0l9eOGYp1cR-56" value="Partita IVA" style="ellipse;whiteSpace=wrap;html=1;fontStyle=4" parent="1" vertex="1">
          <mxGeometry x="885" y="-842" width="120" height="80" as="geometry" />
        </mxCell>
        <mxCell id="G5Km5KM9y0l9eOGYp1cR-60" style="rounded=0;orthogonalLoop=1;jettySize=auto;html=1;entryX=0.5;entryY=1;entryDx=0;entryDy=0;endArrow=none;endFill=0;" parent="1" source="G5Km5KM9y0l9eOGYp1cR-58" target="G5Km5KM9y0l9eOGYp1cR-20" edge="1">
          <mxGeometry relative="1" as="geometry" />
        </mxCell>
        <mxCell id="G5Km5KM9y0l9eOGYp1cR-58" value="Data di fondazione" style="ellipse;whiteSpace=wrap;html=1;fontStyle=4" parent="1" vertex="1">
          <mxGeometry x="1010" y="130" width="120" height="80" as="geometry" />
        </mxCell>
        <mxCell id="B4FTuvSRuAMlY6wqXQve-3" value="associato" style="rhombus;whiteSpace=wrap;html=1;" parent="1" vertex="1">
          <mxGeometry x="540" y="-520" width="80" height="80" as="geometry" />
        </mxCell>
        <mxCell id="B4FTuvSRuAMlY6wqXQve-6" style="rounded=0;orthogonalLoop=1;jettySize=auto;html=1;entryX=0.25;entryY=0;entryDx=0;entryDy=0;endArrow=none;endFill=0;" parent="1" source="B4FTuvSRuAMlY6wqXQve-5" target="G5Km5KM9y0l9eOGYp1cR-34" edge="1">
          <mxGeometry relative="1" as="geometry" />
        </mxCell>
        <mxCell id="B4FTuvSRuAMlY6wqXQve-5" value="file" style="ellipse;whiteSpace=wrap;html=1;fontStyle=4" parent="1" vertex="1">
          <mxGeometry x="180" y="-680" width="120" height="80" as="geometry" />
        </mxCell>
        <mxCell id="B4FTuvSRuAMlY6wqXQve-10" value="" style="rounded=0;whiteSpace=wrap;html=1;" parent="1" vertex="1">
          <mxGeometry x="1170" y="-520" width="140" height="80" as="geometry" />
        </mxCell>
        <mxCell id="B4FTuvSRuAMlY6wqXQve-11" value="Traccia" style="rounded=0;whiteSpace=wrap;html=1;" parent="1" vertex="1">
          <mxGeometry x="1180" y="-510" width="120" height="60" as="geometry" />
        </mxCell>
        <mxCell id="B4FTuvSRuAMlY6wqXQve-13" value="Nome d&#39;arte" style="ellipse;whiteSpace=wrap;html=1;fontStyle=4" parent="1" vertex="1">
          <mxGeometry x="1370" y="-210" width="120" height="80" as="geometry" />
        </mxCell>
        <mxCell id="B4FTuvSRuAMlY6wqXQve-18" value="(0,n)" style="text;html=1;align=center;verticalAlign=middle;resizable=0;points=[];autosize=1;strokeColor=none;fillColor=none;" parent="1" vertex="1">
          <mxGeometry x="1060" y="-840" width="50" height="30" as="geometry" />
        </mxCell>
        <mxCell id="B4FTuvSRuAMlY6wqXQve-20" value="(1,1)" style="text;html=1;align=center;verticalAlign=middle;resizable=0;points=[];autosize=1;strokeColor=none;fillColor=none;" parent="1" vertex="1">
          <mxGeometry x="782.5" y="-412" width="50" height="30" as="geometry" />
        </mxCell>
        <mxCell id="B4FTuvSRuAMlY6wqXQve-22" value="(1,n)" style="text;html=1;align=center;verticalAlign=middle;resizable=0;points=[];autosize=1;strokeColor=none;fillColor=none;" parent="1" vertex="1">
          <mxGeometry x="665" y="-382" width="50" height="30" as="geometry" />
        </mxCell>
        <mxCell id="B4FTuvSRuAMlY6wqXQve-23" value="(1,n)" style="text;html=1;align=center;verticalAlign=middle;resizable=0;points=[];autosize=1;strokeColor=none;fillColor=none;" parent="1" vertex="1">
          <mxGeometry x="855" y="-412" width="50" height="30" as="geometry" />
        </mxCell>
        <mxCell id="B4FTuvSRuAMlY6wqXQve-24" value="(1,1)" style="text;html=1;align=center;verticalAlign=middle;resizable=0;points=[];autosize=1;strokeColor=none;fillColor=none;" parent="1" vertex="1">
          <mxGeometry x="1115" y="-502" width="50" height="30" as="geometry" />
        </mxCell>
        <mxCell id="B4FTuvSRuAMlY6wqXQve-25" value="(1,n)" style="text;html=1;align=center;verticalAlign=middle;resizable=0;points=[];autosize=1;strokeColor=none;fillColor=none;" parent="1" vertex="1">
          <mxGeometry x="825" y="-312" width="50" height="30" as="geometry" />
        </mxCell>
        <mxCell id="B4FTuvSRuAMlY6wqXQve-26" value="(0,n)" style="text;html=1;align=center;verticalAlign=middle;resizable=0;points=[];autosize=1;strokeColor=none;fillColor=none;" parent="1" vertex="1">
          <mxGeometry x="1145" y="-172" width="50" height="30" as="geometry" />
        </mxCell>
        <mxCell id="B4FTuvSRuAMlY6wqXQve-29" value="(1,n)" style="text;html=1;align=center;verticalAlign=middle;resizable=0;points=[];autosize=1;strokeColor=none;fillColor=none;" parent="1" vertex="1">
          <mxGeometry x="1230" y="-442" width="50" height="30" as="geometry" />
        </mxCell>
        <mxCell id="B4FTuvSRuAMlY6wqXQve-32" value="(0,n)" style="text;html=1;align=center;verticalAlign=middle;resizable=0;points=[];autosize=1;strokeColor=none;fillColor=none;" parent="1" vertex="1">
          <mxGeometry x="1230" y="-222" width="50" height="30" as="geometry" />
        </mxCell>
        <mxCell id="B4FTuvSRuAMlY6wqXQve-33" value="(1,n)" style="text;html=1;align=center;verticalAlign=middle;resizable=0;points=[];autosize=1;strokeColor=none;fillColor=none;" parent="1" vertex="1">
          <mxGeometry x="1175" y="85" width="50" height="30" as="geometry" />
        </mxCell>
        <mxCell id="B4FTuvSRuAMlY6wqXQve-34" value="(0,n)" style="text;html=1;align=center;verticalAlign=middle;resizable=0;points=[];autosize=1;strokeColor=none;fillColor=none;" parent="1" vertex="1">
          <mxGeometry x="1360" y="30" width="50" height="30" as="geometry" />
        </mxCell>
        <mxCell id="B4FTuvSRuAMlY6wqXQve-45" value="(0,n)" style="text;html=1;align=center;verticalAlign=middle;resizable=0;points=[];autosize=1;strokeColor=none;fillColor=none;" parent="1" vertex="1">
          <mxGeometry x="630" y="117" width="50" height="30" as="geometry" />
        </mxCell>
        <mxCell id="B4FTuvSRuAMlY6wqXQve-46" value="(0,n)" style="text;html=1;align=center;verticalAlign=middle;resizable=0;points=[];autosize=1;strokeColor=none;fillColor=none;" parent="1" vertex="1">
          <mxGeometry x="325" y="117" width="50" height="30" as="geometry" />
        </mxCell>
        <mxCell id="mxVdU6yeqM1i-LsGYegs-5" value="Genere" style="ellipse;whiteSpace=wrap;html=1;fontStyle=0" parent="1" vertex="1">
          <mxGeometry x="605" y="-630" width="120" height="80" as="geometry" />
        </mxCell>
        <mxCell id="mxVdU6yeqM1i-LsGYegs-6" style="edgeStyle=none;rounded=0;orthogonalLoop=1;jettySize=auto;html=1;entryX=0.25;entryY=0;entryDx=0;entryDy=0;endArrow=none;endFill=0;exitX=0.5;exitY=1;exitDx=0;exitDy=0;" parent="1" source="mxVdU6yeqM1i-LsGYegs-5" target="_BEPI9c5hfQ9F48i55fc-95" edge="1">
          <mxGeometry relative="1" as="geometry">
            <mxPoint x="540" y="-630" as="targetPoint" />
            <mxPoint x="407.5" y="-799.5" as="sourcePoint" />
          </mxGeometry>
        </mxCell>
        <mxCell id="mxVdU6yeqM1i-LsGYegs-8" value="Formato" style="ellipse;whiteSpace=wrap;html=1;fontStyle=4" parent="1" vertex="1">
          <mxGeometry x="780" y="-640" width="120" height="80" as="geometry" />
        </mxCell>
        <mxCell id="mxVdU6yeqM1i-LsGYegs-9" style="edgeStyle=none;rounded=0;orthogonalLoop=1;jettySize=auto;html=1;entryX=0.5;entryY=0;entryDx=0;entryDy=0;endArrow=none;endFill=0;exitX=0.5;exitY=1;exitDx=0;exitDy=0;" parent="1" source="mxVdU6yeqM1i-LsGYegs-8" target="_BEPI9c5hfQ9F48i55fc-95" edge="1">
          <mxGeometry relative="1" as="geometry">
            <mxPoint x="745" y="-630" as="targetPoint" />
            <mxPoint x="560" y="-799.5" as="sourcePoint" />
          </mxGeometry>
        </mxCell>
        <mxCell id="mxVdU6yeqM1i-LsGYegs-34" style="rounded=0;orthogonalLoop=1;jettySize=auto;html=1;entryX=0.25;entryY=1;entryDx=0;entryDy=0;endArrow=none;endFill=0;" parent="1" source="mxVdU6yeqM1i-LsGYegs-35" target="G5Km5KM9y0l9eOGYp1cR-34" edge="1">
          <mxGeometry relative="1" as="geometry">
            <mxPoint x="565" y="-440" as="targetPoint" />
          </mxGeometry>
        </mxCell>
        <mxCell id="mxVdU6yeqM1i-LsGYegs-35" value="tipologia" style="ellipse;whiteSpace=wrap;html=1;fontStyle=0" parent="1" vertex="1">
          <mxGeometry x="180" y="-472" width="95" height="50" as="geometry" />
        </mxCell>
        <mxCell id="mxVdU6yeqM1i-LsGYegs-36" style="edgeStyle=none;rounded=0;orthogonalLoop=1;jettySize=auto;html=1;entryX=1;entryY=0.5;entryDx=0;entryDy=0;endArrow=none;endFill=0;exitX=0;exitY=0.5;exitDx=0;exitDy=0;" parent="1" source="B4FTuvSRuAMlY6wqXQve-13" target="_BEPI9c5hfQ9F48i55fc-73" edge="1">
          <mxGeometry relative="1" as="geometry">
            <mxPoint x="1445" y="-250" as="targetPoint" />
            <mxPoint x="1450" y="-170" as="sourcePoint" />
          </mxGeometry>
        </mxCell>
        <mxCell id="mxVdU6yeqM1i-LsGYegs-41" value="Durata" style="ellipse;whiteSpace=wrap;html=1;fontStyle=0;dashed=1;" parent="1" vertex="1">
          <mxGeometry x="905" y="-340" width="90" height="50" as="geometry" />
        </mxCell>
        <mxCell id="mxVdU6yeqM1i-LsGYegs-42" style="edgeStyle=none;rounded=0;orthogonalLoop=1;jettySize=auto;html=1;entryX=0;entryY=0.5;entryDx=0;entryDy=0;endArrow=none;endFill=0;exitX=1;exitY=0.75;exitDx=0;exitDy=0;" parent="1" source="_BEPI9c5hfQ9F48i55fc-95" target="mxVdU6yeqM1i-LsGYegs-41" edge="1">
          <mxGeometry relative="1" as="geometry">
            <mxPoint x="980" y="-387" as="targetPoint" />
            <mxPoint x="860" y="-347" as="sourcePoint" />
          </mxGeometry>
        </mxCell>
        <mxCell id="mxVdU6yeqM1i-LsGYegs-44" value="condivide" style="text;html=1;align=center;verticalAlign=middle;resizable=0;points=[];autosize=1;strokeColor=none;fillColor=none;" parent="1" vertex="1">
          <mxGeometry x="310" y="147" width="70" height="30" as="geometry" />
        </mxCell>
        <mxCell id="mxVdU6yeqM1i-LsGYegs-46" value="condivisa" style="text;html=1;align=center;verticalAlign=middle;resizable=0;points=[];autosize=1;strokeColor=none;fillColor=none;" parent="1" vertex="1">
          <mxGeometry x="612.5" y="147" width="70" height="30" as="geometry" />
        </mxCell>
        <mxCell id="mvCyFmwDbxFd1LSHAD4m-16" style="rounded=0;orthogonalLoop=1;jettySize=auto;html=1;exitX=0.5;exitY=1;exitDx=0;exitDy=0;entryX=0.5;entryY=0;entryDx=0;entryDy=0;endArrow=none;endFill=0;strokeColor=default;" parent="1" source="O1YFLTiMdP-MgJ8jgOFf-11" target="_BEPI9c5hfQ9F48i55fc-17" edge="1">
          <mxGeometry relative="1" as="geometry">
            <mxPoint x="850" y="-140" as="sourcePoint" />
            <mxPoint x="832.5" y="171" as="targetPoint" />
          </mxGeometry>
        </mxCell>
        <mxCell id="mvCyFmwDbxFd1LSHAD4m-19" value="(1,n)" style="text;html=1;align=center;verticalAlign=middle;resizable=0;points=[];autosize=1;strokeColor=none;fillColor=none;" parent="1" vertex="1">
          <mxGeometry x="680" y="-37" width="50" height="30" as="geometry" />
        </mxCell>
        <mxCell id="mvCyFmwDbxFd1LSHAD4m-21" value="(1,1)" style="text;html=1;align=center;verticalAlign=middle;resizable=0;points=[];autosize=1;strokeColor=none;fillColor=none;" parent="1" vertex="1">
          <mxGeometry x="730" y="-300" width="50" height="30" as="geometry" />
        </mxCell>
        <mxCell id="mvCyFmwDbxFd1LSHAD4m-24" style="rounded=0;orthogonalLoop=1;jettySize=auto;html=1;entryX=0.406;entryY=0.998;entryDx=0;entryDy=0;entryPerimeter=0;endArrow=none;endFill=0;exitX=0.5;exitY=0;exitDx=0;exitDy=0;" parent="1" source="O1YFLTiMdP-MgJ8jgOFf-11" target="_BEPI9c5hfQ9F48i55fc-95" edge="1">
          <mxGeometry relative="1" as="geometry">
            <mxPoint x="850" y="-220" as="sourcePoint" />
          </mxGeometry>
        </mxCell>
        <mxCell id="mvCyFmwDbxFd1LSHAD4m-27" value="" style="rhombus;whiteSpace=wrap;html=1;" parent="1" vertex="1">
          <mxGeometry x="455" y="-7" width="80" height="80" as="geometry" />
        </mxCell>
        <mxCell id="mvCyFmwDbxFd1LSHAD4m-28" value="(1,1)" style="text;html=1;align=center;verticalAlign=middle;resizable=0;points=[];autosize=1;strokeColor=none;fillColor=none;" parent="1" vertex="1">
          <mxGeometry x="600" y="7" width="50" height="30" as="geometry" />
        </mxCell>
        <mxCell id="mvCyFmwDbxFd1LSHAD4m-29" value="(0,n)" style="text;html=1;align=center;verticalAlign=middle;resizable=0;points=[];autosize=1;strokeColor=none;fillColor=none;" parent="1" vertex="1">
          <mxGeometry x="380" y="7" width="50" height="30" as="geometry" />
        </mxCell>
        <mxCell id="mvCyFmwDbxFd1LSHAD4m-33" style="rounded=0;orthogonalLoop=1;jettySize=auto;html=1;entryX=0;entryY=0.5;entryDx=0;entryDy=0;endArrow=none;endFill=0;exitX=1;exitY=0.5;exitDx=0;exitDy=0;" parent="1" source="mvCyFmwDbxFd1LSHAD4m-27" target="_BEPI9c5hfQ9F48i55fc-17" edge="1">
          <mxGeometry relative="1" as="geometry">
            <mxPoint x="395" y="42" as="sourcePoint" />
            <mxPoint x="465" y="41" as="targetPoint" />
          </mxGeometry>
        </mxCell>
        <mxCell id="mvCyFmwDbxFd1LSHAD4m-35" value="Ha" style="rhombus;whiteSpace=wrap;html=1;" parent="1" vertex="1">
          <mxGeometry x="467.5" y="7" width="55" height="54" as="geometry" />
        </mxCell>
        <mxCell id="hIdb89uVxdYaDY5rnDA6-3" style="rounded=0;orthogonalLoop=1;jettySize=auto;html=1;entryX=0.5;entryY=1;entryDx=0;entryDy=0;endArrow=none;endFill=0;exitX=0.5;exitY=0;exitDx=0;exitDy=0;" parent="1" source="hIdb89uVxdYaDY5rnDA6-7" target="G5Km5KM9y0l9eOGYp1cR-49" edge="1">
          <mxGeometry relative="1" as="geometry">
            <mxPoint x="1186.219512195122" y="-711.219512195122" as="sourcePoint" />
          </mxGeometry>
        </mxCell>
        <mxCell id="hIdb89uVxdYaDY5rnDA6-4" style="rounded=0;orthogonalLoop=1;jettySize=auto;html=1;entryX=0.5;entryY=1;entryDx=0;entryDy=0;endArrow=none;endFill=0;exitX=0.25;exitY=0;exitDx=0;exitDy=0;" parent="1" source="B4FTuvSRuAMlY6wqXQve-10" target="hIdb89uVxdYaDY5rnDA6-7" edge="1">
          <mxGeometry relative="1" as="geometry">
            <mxPoint x="1196" y="-701" as="sourcePoint" />
            <mxPoint x="1195" y="-640" as="targetPoint" />
          </mxGeometry>
        </mxCell>
        <mxCell id="hIdb89uVxdYaDY5rnDA6-5" value="(1,1)" style="text;html=1;align=center;verticalAlign=middle;resizable=0;points=[];autosize=1;strokeColor=none;fillColor=none;" parent="1" vertex="1">
          <mxGeometry x="1195" y="-550" width="50" height="30" as="geometry" />
        </mxCell>
        <mxCell id="hIdb89uVxdYaDY5rnDA6-6" value="(0,n)" style="text;html=1;align=center;verticalAlign=middle;resizable=0;points=[];autosize=1;strokeColor=none;fillColor=none;" parent="1" vertex="1">
          <mxGeometry x="1160" y="-842" width="50" height="30" as="geometry" />
        </mxCell>
        <mxCell id="hIdb89uVxdYaDY5rnDA6-7" value="" style="rhombus;whiteSpace=wrap;html=1;" parent="1" vertex="1">
          <mxGeometry x="1150" y="-740" width="100" height="100" as="geometry" />
        </mxCell>
        <mxCell id="hIdb89uVxdYaDY5rnDA6-8" value="Rilascia" style="rhombus;whiteSpace=wrap;html=1;" parent="1" vertex="1">
          <mxGeometry x="1160" y="-730" width="80" height="80" as="geometry" />
        </mxCell>
        <mxCell id="hIdb89uVxdYaDY5rnDA6-9" value="" style="rhombus;whiteSpace=wrap;html=1;" parent="1" vertex="1">
          <mxGeometry x="935" y="-700" width="100" height="100" as="geometry" />
        </mxCell>
        <mxCell id="hIdb89uVxdYaDY5rnDA6-10" value="Pubblica" style="rhombus;whiteSpace=wrap;html=1;" parent="1" vertex="1">
          <mxGeometry x="945" y="-690" width="80" height="80" as="geometry" />
        </mxCell>
        <mxCell id="hIdb89uVxdYaDY5rnDA6-11" value="Incide" style="rhombus;whiteSpace=wrap;html=1;" parent="1" vertex="1">
          <mxGeometry x="965" y="-246" width="90" height="80" as="geometry" />
        </mxCell>
        <mxCell id="hIdb89uVxdYaDY5rnDA6-15" value="Costituito" style="rhombus;whiteSpace=wrap;html=1;" parent="1" vertex="1">
          <mxGeometry x="1240" y="85" width="90" height="80" as="geometry" />
        </mxCell>
        <mxCell id="hIdb89uVxdYaDY5rnDA6-25" style="rounded=0;orthogonalLoop=1;jettySize=auto;html=1;exitX=1;exitY=0.5;exitDx=0;exitDy=0;entryX=0;entryY=0.25;entryDx=0;entryDy=0;endArrow=none;endFill=0;" parent="1" source="hIdb89uVxdYaDY5rnDA6-22" target="G5Km5KM9y0l9eOGYp1cR-2" edge="1">
          <mxGeometry relative="1" as="geometry" />
        </mxCell>
        <mxCell id="hIdb89uVxdYaDY5rnDA6-22" value="" style="rhombus;whiteSpace=wrap;html=1;" parent="1" vertex="1">
          <mxGeometry x="1245" y="-80" width="80" height="80" as="geometry" />
        </mxCell>
        <mxCell id="hIdb89uVxdYaDY5rnDA6-23" value="Fonda" style="rhombus;whiteSpace=wrap;html=1;" parent="1" vertex="1">
          <mxGeometry x="1257.5" y="-66" width="55" height="54" as="geometry" />
        </mxCell>
        <mxCell id="hIdb89uVxdYaDY5rnDA6-26" value="(1,1)" style="text;html=1;align=center;verticalAlign=middle;resizable=0;points=[];autosize=1;strokeColor=none;fillColor=none;" parent="1" vertex="1">
          <mxGeometry x="1150" y="-19" width="50" height="30" as="geometry" />
        </mxCell>
        <mxCell id="hIdb89uVxdYaDY5rnDA6-27" value="(0,n)" style="text;html=1;align=center;verticalAlign=middle;resizable=0;points=[];autosize=1;strokeColor=none;fillColor=none;" parent="1" vertex="1">
          <mxGeometry x="1350" y="-24" width="50" height="30" as="geometry" />
        </mxCell>
        <mxCell id="8ZGJrrtJU0_wPGF0d0PF-20" value="(1,1)" style="text;html=1;align=center;verticalAlign=middle;resizable=0;points=[];autosize=1;strokeColor=none;fillColor=none;" parent="1" vertex="1">
          <mxGeometry x="455" y="-560" width="50" height="30" as="geometry" />
        </mxCell>
        <mxCell id="O1YFLTiMdP-MgJ8jgOFf-4" value="Stato" style="ellipse;whiteSpace=wrap;html=1;fontStyle=4" parent="1" vertex="1">
          <mxGeometry x="845" y="-200" width="70" height="50" as="geometry" />
        </mxCell>
        <mxCell id="O1YFLTiMdP-MgJ8jgOFf-5" style="rounded=0;orthogonalLoop=1;jettySize=auto;html=1;exitX=0.5;exitY=0;exitDx=0;exitDy=0;endArrow=none;endFill=0;strokeColor=default;entryX=0.5;entryY=1;entryDx=0;entryDy=0;" parent="1" source="O1YFLTiMdP-MgJ8jgOFf-4" target="_BEPI9c5hfQ9F48i55fc-95" edge="1">
          <mxGeometry relative="1" as="geometry">
            <mxPoint x="890" y="302" as="sourcePoint" />
            <mxPoint x="840" y="-240" as="targetPoint" />
          </mxGeometry>
        </mxCell>
        <mxCell id="O1YFLTiMdP-MgJ8jgOFf-6" style="rounded=0;orthogonalLoop=1;jettySize=auto;html=1;entryX=0.25;entryY=1;entryDx=0;entryDy=0;endArrow=none;endFill=0;" parent="1" source="O1YFLTiMdP-MgJ8jgOFf-7" target="_BEPI9c5hfQ9F48i55fc-95" edge="1">
          <mxGeometry relative="1" as="geometry">
            <mxPoint x="830" y="-200" as="targetPoint" />
          </mxGeometry>
        </mxCell>
        <mxCell id="O1YFLTiMdP-MgJ8jgOFf-7" value="Numero copie" style="ellipse;whiteSpace=wrap;html=1;fontStyle=0" parent="1" vertex="1">
          <mxGeometry x="550" y="-250" width="70" height="50" as="geometry" />
        </mxCell>
        <mxCell id="O1YFLTiMdP-MgJ8jgOFf-8" style="rounded=0;orthogonalLoop=1;jettySize=auto;html=1;exitX=0.25;exitY=1;exitDx=0;exitDy=0;entryX=0.5;entryY=0;entryDx=0;entryDy=0;endArrow=none;endFill=0;" parent="1" source="_BEPI9c5hfQ9F48i55fc-95" target="O1YFLTiMdP-MgJ8jgOFf-9" edge="1">
          <mxGeometry relative="1" as="geometry">
            <mxPoint x="810" y="-180" as="sourcePoint" />
          </mxGeometry>
        </mxCell>
        <mxCell id="O1YFLTiMdP-MgJ8jgOFf-9" value="Note" style="ellipse;whiteSpace=wrap;html=1;fontStyle=0" parent="1" vertex="1">
          <mxGeometry x="640" y="-200" width="70" height="50" as="geometry" />
        </mxCell>
        <mxCell id="O1YFLTiMdP-MgJ8jgOFf-11" value="" style="rhombus;whiteSpace=wrap;html=1;" parent="1" vertex="1">
          <mxGeometry x="715" y="-167" width="100" height="100" as="geometry" />
        </mxCell>
        <mxCell id="O1YFLTiMdP-MgJ8jgOFf-12" value="Appartiene" style="rhombus;whiteSpace=wrap;html=1;" parent="1" vertex="1">
          <mxGeometry x="725" y="-157" width="80" height="80" as="geometry" />
        </mxCell>
        <mxCell id="-A1Xnri77ompU6i3Z0by-1" value="Ruolo" style="ellipse;whiteSpace=wrap;html=1;fontStyle=0" parent="1" vertex="1">
          <mxGeometry x="1310" y="-347" width="80" height="50" as="geometry" />
        </mxCell>
        <mxCell id="-A1Xnri77ompU6i3Z0by-2" style="rounded=0;orthogonalLoop=1;jettySize=auto;html=1;entryX=0;entryY=0.5;entryDx=0;entryDy=0;endArrow=none;endFill=0;exitX=1;exitY=0.5;exitDx=0;exitDy=0;" parent="1" source="G5Km5KM9y0l9eOGYp1cR-12" target="-A1Xnri77ompU6i3Z0by-1" edge="1">
          <mxGeometry relative="1" as="geometry">
            <mxPoint x="1300" y="-362" as="targetPoint" />
            <mxPoint x="1300" y="-284" as="sourcePoint" />
          </mxGeometry>
        </mxCell>
        <mxCell id="-A1Xnri77ompU6i3Z0by-5" value="" style="rhombus;whiteSpace=wrap;html=1;" parent="1" vertex="1">
          <mxGeometry x="980" y="-462" width="100" height="100" as="geometry" />
        </mxCell>
        <mxCell id="-A1Xnri77ompU6i3Z0by-6" value="Raggruppa" style="rhombus;whiteSpace=wrap;html=1;" parent="1" vertex="1">
          <mxGeometry x="990" y="-452" width="80" height="80" as="geometry" />
        </mxCell>
      </root>
    </mxGraphModel>
  </diagram>
</mxfile>
